<?xml version="1.0" encoding="utf-8"?>
<!-- Generator: Adobe Illustrator 19.0.0, SVG Export Plug-In . SVG Version: 6.00 Build 0)  -->
<svg version="1.1" id="Layer_1" xmlns="http://www.w3.org/2000/svg" xmlns:xlink="http://www.w3.org/1999/xlink" x="0px" y="0px"
	 viewBox="90 91 792 612" style="enable-background:new 90 91 792 612;" xml:space="preserve">
<style type="text/css">
	.st0{fill:#B49358;}
	.st1{fill:#B82025;stroke:#000000;stroke-width:1.5;stroke-miterlimit:10;}
</style>
<g>
	<path d="M506.9,461.4h34.5c0.4,0,0.7,0.3,0.7,0.6v33.7c0,0.3,0.1,0.5,0.3,0.6c9.4,5.8,37.2,24.1,37.6,25.1c0.1,0.3-0.8,1.9-1.4,3.5
		c0,0,0,0,1.1,0.9c0.3,0.3-3.4,6.4-3.4,6.4c-5.7-3.5-46-29.2-46-29.9c0.2-19.1-0.1-30.8-0.1-30.8c-7.2,0-13.5,0.4-13.5,0.4
		c0.1,9.1,0.1,8.4-0.1,22c-2.5-2-36.7-23.8-42-27.6c-0.2-0.1-0.5-0.3-0.7-0.1c-17.4,11-34.8,21.9-52.2,32.9
		c0.3,0.3,19.8,12.7,29.9,19.7c0.3,0.3-0.1,0.4-1.3,2.7c-0.2,0.4,1.5,1,1.3,1.3c-2.3,4-3.6,6.1-3.9,5.9
		c-5.7-3.5-63.3-39.7-63.5-39.5l-63,39.4l-3.3-6.4l1.4-0.9l-1.1-2.3l29.4-19.3l-52.7-33c-0.2-0.1-28.3,18.2-42.1,27.1
		c-0.4,0.3,0.3-22.4,0-22.4c0,0-14.4-0.1-14.4,0.3c0,0,0.1,31.6-0.1,31.7c0,0-44.9,29.2-45.1,28.8l-3.4-5.4c-0.2-0.3,2-1.5,1.8-1.9
		c-0.5-0.6-1.8-2.8-1.8-2.8c-0.1-0.4,37.8-25.6,37.8-25.6c0.1-0.1,0.1-0.3,0.1-0.4c0-2.6,0-29.9,0-34.6c0-0.4,35.5,0.1,35.5,0.1
		c0.4,0,0.3,10.5,0.3,10.5c0.6,0.3,31.6-20.2,31.6-20.2c0.8,0.4,62.9,40.8,63.5,40.7c0.8-0.1,25.8-16,25.8-16
		c0.2-0.1,26.7,16,27.2,16c1-0.1,62.7-40.8,62.7-40.8c2.1,1,14.5,9.1,32.1,20.2v-9.6C506.3,461.6,506.6,461.4,506.9,461.4z"/>
</g>
<g>
	<g>
		<path class="st0" d="M259.7,463.7c0,0-20.4,0-30.6,0c0,11.3,0.2,23,0.3,33.9c-1.4,0.4-32.9,22.1-37.4,24.6l1.4,2.4l-2,1.5
			c0,0.1,1,1.8,1.4,2.6c0.2,0,42.4-27.1,42.8-27.9c-0.4,0.8,0-31.9,0-31.9l18.8-0.5V489c1-0.6,40-26.1,40-26.1
			c2,2.2,34.9,21.2,45,28c2.4,1.7,8.9,5.9,9.6,6l5.1-3.3c-19.9-13.1-39.9-26.1-59.8-39.2c-1.4,0.3-31.2,21.1-34.6,22.9L259.7,463.7
			L259.7,463.7z"/>
	</g>
</g>
<g>
	<g>
		<path class="st0" d="M513.9,468.4c5.5-0.4,11.9-0.4,18-0.4c0,10.8,0.1,22,0.1,32.6c5.3,3.1,41.5,27.4,42.8,27.9
			c0-0.1,0.7-1,1.3-2.4c-0.9-0.8-0.9-0.8-1.7-1.3c0.2-0.6,0.9-1.9,1.3-2.8c-15.2-10.2-17.7-12.4-36.7-24.3c-0.4-18.3-0.2-9.3-0.4-34
			c-10.2,0-20.4,0-30.6,0c0,4.9,0,9.3,0,13.6c-0.1,0-0.2,0-0.3,0c-2.1-2.3-33.5-22.4-34.1-22.3c-1.2,0.3-54,35.2-60.1,38.4
			c0.1,0.1,5.1,3.2,5.1,3.2c1,0.1,51.9-32.3,55-33.8c18.9,12.2,18.9,12.2,40.3,26C513.9,482,513.9,475.2,513.9,468.4z"/>
	</g>
</g>
<g>
	<g>
		<path class="st0" d="M383.5,478.9l-63.4,40.2l1,2.3l-1.5,0.9c0,0.1,1,2.2,1.4,2.9l62.5-39.2l62.7,38.9c0.2-0.3,0.7-1.2,1.4-2.3
			c-0.9-0.6-0.9-0.6-1.8-1.3c0.5-0.5,0.8-1.5,1.5-2.4C447.5,518.7,385.1,479.4,383.5,478.9z"/>
	</g>
</g>
<g>
	<g>
		<path class="st1" d="M215.2,529.4h24.7c3.1,0,5.7,0.5,7.8,1.6c2.1,1.1,3.8,2.7,5.3,4.8c1.5,2.2,2.6,4.7,3.4,7.7
			c0.8,2.9,1.2,6.1,1.2,9.4c0,6.6-1.5,12.2-4.6,16.7c-3.1,4.5-7.3,6.7-12.7,6.7h-8v14.5c0,1.8,0.1,3,0.2,3.5
			c0.2,0.7,0.5,1.2,0.9,1.6c0.4,0.3,1.1,0.5,2.1,0.5h2.4V607h-22.8v-10.7h1.6c1.4,0,2.3-0.2,2.8-0.5s0.8-0.9,1-1.6
			c0.2-0.7,0.3-2.2,0.3-4.5V547c0-2.4-0.1-3.9-0.3-4.7c-0.2-0.8-0.5-1.3-0.9-1.7s-1.1-0.5-2.2-0.5h-2.3V529.4z M232.4,542.1v22h4
			c2.4,0,4.2-0.4,5.4-1.3c1.1-0.8,2.1-2.1,2.7-3.8c0.7-1.7,1-3.8,1-6.2c0-3.6-0.8-6.4-2.5-8.5c-1.2-1.6-3-2.3-5.5-2.3H232.4z"/>
		<path class="st1" d="M273.5,555.8v7.3c1.6-2.8,3-4.7,4.2-5.7c1.2-1,2.3-1.5,3.4-1.5c1,0,1.9,0.4,2.6,1.1c0.8,0.8,1.4,1.8,1.8,3.2
			c0.5,1.4,0.7,2.9,0.7,4.5c0,2.1-0.4,4-1.3,5.7c-0.8,1.7-2,2.6-3.5,2.6c-0.4,0-0.8,0-1.1-0.2s-1-0.4-2-1c-0.5-0.3-1-0.4-1.3-0.4
			c-0.5,0-1.4,0.6-2.6,1.7v19.6c0,1.7,0.1,2.8,0.2,3.3c0.2,0.5,0.4,0.9,0.7,1.1c0.3,0.2,1.1,0.4,2.2,0.4h1.3v9.7h-18.6v-9.7h1.6
			c1.1,0,1.8-0.1,2.1-0.3c0.3-0.2,0.5-0.6,0.6-1.1c0.1-0.5,0.2-1.6,0.2-3.4v-23h-4.5V560c3.3-0.3,6.7-1.7,10.2-4.2H273.5z"/>
		<path class="st1" d="M305.3,555.8c3.4,0,6.4,1.1,9,3.4c2.6,2.2,4.5,5.3,5.9,9.2c1.4,3.9,2.1,8.4,2.1,13.6c0,7.8-1.5,14.2-4.6,19.1
			c-3.1,4.9-7.1,7.3-12.3,7.3c-5.2,0-9.4-2.5-12.4-7.4c-3-4.7-4.5-11-4.5-19c0-5.2,0.7-9.8,2-13.5s3.3-6.8,5.9-9.1
			C299,556.9,302,555.8,305.3,555.8z M305.4,566.8c-1.1,0-2.2,0.6-3.2,1.7c-1,1.1-1.8,2.8-2.3,5s-0.8,5-0.8,8.4
			c0,3.5,0.3,6.4,0.8,8.7c0.5,2.3,1.3,4,2.2,5.1c1,1.1,2,1.7,3.2,1.7c1.8,0,3.3-1.2,4.6-3.7c1.3-2.5,1.9-6.4,1.9-11.6
			c0-5.1-0.6-8.9-1.8-11.5S307.3,566.8,305.4,566.8z"/>
		<path class="st1" d="M327.2,529.4h21.2l8.1,47.3l8.4-47.3h21.5v10.7h-2.3c-1.3,0-2.1,0.4-2.6,1.3c-0.5,0.9-0.7,2.5-0.7,4.9v44.1
			c0,1.9,0.1,3.1,0.2,3.6c0.2,0.7,0.5,1.3,0.8,1.6c0.5,0.4,1.1,0.7,1.9,0.7h2.6V607H364v-10.7h1.7c1.3,0,2.1-0.2,2.6-0.5
			c0.4-0.3,0.8-0.8,1-1.5c0.2-0.7,0.3-2,0.3-3.8v-47.8L358.2,607h-6.5l-11-62.3v47.2c0,1.1,0.1,1.9,0.4,2.5c0.2,0.6,0.6,1,1,1.4
			c0.4,0.3,1.1,0.5,2.1,0.5h2.2V607h-19.2v-10.7h1.9c1.2,0,2-0.2,2.4-0.5c0.4-0.4,0.8-0.9,1-1.7s0.3-2.2,0.3-4.2v-43.5
			c0-2-0.1-3.3-0.2-3.9c-0.2-0.8-0.5-1.4-0.9-1.8c-0.4-0.4-1-0.6-1.9-0.6h-2.6V529.4z"/>
		<path class="st1" d="M409.7,576.7V573c0-2.2-0.1-3.7-0.3-4.6c-0.2-0.8-0.6-1.5-1.2-2.1c-0.6-0.6-1.3-0.8-2.2-0.8
			c-0.7,0-1.3,0.2-1.8,0.6s-1,0.8-1.3,1.4c-0.3,0.6-0.7,1.7-1.1,3.3c-0.5,2.1-1.2,3.6-1.9,4.5c-0.8,0.9-1.6,1.4-2.7,1.4
			c-1.3,0-2.3-0.7-3.2-2c-0.8-1.3-1.2-3-1.2-5c0-2.2,0.4-4.2,1.3-6c1.1-2.3,2.8-4.2,5-5.7c2.2-1.5,4.8-2.2,7.5-2.2
			c2.8,0,5.2,0.8,7.1,2.3c2,1.5,3.3,3.3,4.1,5.4c0.8,2.1,1.2,5.3,1.2,9.6v18c0,2.2,0.1,3.6,0.2,4.2c0.1,0.6,0.4,1.2,0.9,1.6
			c0.5,0.5,1,0.7,1.5,0.7s1.3-0.3,2.3-0.8v9.8c-1.7,0.9-3.4,1.4-4.9,1.4c-1.9,0-3.4-0.5-4.7-1.5s-2.4-2.5-3.3-4.5
			c-2,2.2-3.8,3.7-5.5,4.6c-1.6,0.9-3.2,1.4-4.8,1.4c-2.9,0-5.2-1.3-7-4c-1.8-2.7-2.7-6-2.7-10c0-2.2,0.3-4.3,0.9-6.2
			c0.6-1.9,1.5-3.5,2.7-4.9c1.2-1.4,3.1-2.6,5.6-3.7C402.9,577.9,406,577.2,409.7,576.7z M409.7,585c-2.6,0.6-4.5,1.3-5.6,1.9
			c-1.1,0.7-1.9,1.5-2.3,2.5c-0.5,1-0.7,2-0.7,3c0,1.3,0.3,2.5,0.9,3.4s1.4,1.4,2.4,1.4c0.7,0,1.4-0.3,2.3-0.9s1.9-1.4,2.9-2.5V585z
			"/>
		<path class="st1" d="M440.7,555.8v6.7c2.3-2.6,4.2-4.3,5.8-5.3c1.6-0.9,3.3-1.4,5-1.4c2,0,3.7,0.7,5.2,2.1
			c1.5,1.4,2.6,3.1,3.3,5.1c0.7,2.1,1,5,1,8.8v20.9c0,1.8,0.1,2.9,0.2,3.4c0.2,0.5,0.4,0.9,0.7,1.1c0.2,0.2,1,0.3,2.2,0.3h1.5v9.7
			h-17.7v-9.7c1.3,0,2.1-0.1,2.3-0.2c0.5-0.2,0.8-0.6,1-1.2c0.2-0.5,0.2-1.7,0.2-3.5v-18.4c0-2.4-0.2-3.9-0.5-4.6
			c-0.5-1.2-1.2-1.8-2.3-1.8c-0.9,0-1.8,0.3-2.8,1s-2.3,1.9-4,3.9v19.9c0,2.2,0.1,3.5,0.4,4c0.3,0.5,1,0.8,2,0.8h1v9.7h-17.5v-9.7
			h0.9c1.4,0,2.2-0.1,2.6-0.3c0.3-0.2,0.6-0.6,0.8-1.1c0.2-0.5,0.3-1.5,0.3-3v-23.3h-4.5V560c3.6-0.7,7-2.2,10.2-4.3H440.7z"/>
		<path class="st1" d="M487.6,576.7V573c0-2.2-0.1-3.7-0.3-4.6c-0.2-0.8-0.6-1.5-1.2-2.1s-1.3-0.8-2.2-0.8c-0.7,0-1.3,0.2-1.8,0.6
			s-1,0.8-1.3,1.4c-0.3,0.6-0.7,1.7-1.1,3.3c-0.5,2.1-1.2,3.6-1.9,4.5c-0.8,0.9-1.6,1.4-2.7,1.4c-1.3,0-2.3-0.7-3.2-2
			c-0.8-1.3-1.2-3-1.2-5c0-2.2,0.4-4.2,1.3-6c1.1-2.3,2.8-4.2,5-5.7c2.2-1.5,4.8-2.2,7.5-2.2s5.2,0.8,7.1,2.3c2,1.5,3.3,3.3,4.1,5.4
			c0.8,2.1,1.2,5.3,1.2,9.6v18c0,2.2,0.1,3.6,0.2,4.2c0.1,0.6,0.4,1.2,0.9,1.6c0.5,0.5,1,0.7,1.5,0.7c0.6,0,1.3-0.3,2.3-0.8v9.8
			c-1.7,0.9-3.4,1.4-4.9,1.4c-1.9,0-3.4-0.5-4.7-1.5s-2.4-2.5-3.3-4.5c-2,2.2-3.8,3.7-5.5,4.6c-1.6,0.9-3.2,1.4-4.8,1.4
			c-2.9,0-5.2-1.3-7-4c-1.8-2.7-2.7-6-2.7-10c0-2.2,0.3-4.3,0.9-6.2c0.6-1.9,1.5-3.5,2.7-4.9c1.2-1.4,3.1-2.6,5.6-3.7
			C480.9,577.9,484,577.2,487.6,576.7z M487.6,585c-2.6,0.6-4.5,1.3-5.6,1.9c-1.1,0.7-1.9,1.5-2.3,2.5c-0.5,1-0.7,2-0.7,3
			c0,1.3,0.3,2.5,0.9,3.4s1.4,1.4,2.4,1.4c0.7,0,1.4-0.3,2.3-0.9s1.9-1.4,2.9-2.5V585z"/>
		<path class="st1" d="M528.5,559.9c1.1-2.5,2.1-4.3,3.2-5.4c1.1-1.1,2.2-1.6,3.4-1.6s2.1,0.6,2.8,1.7c0.7,1.2,1,2.6,1,4.4
			c0,1.6-0.3,3-1,4.1c-0.7,1.1-1.5,1.6-2.4,1.6l-1,0l-1,0c-0.5,0-1.1,0.3-1.6,1c1.1,3,1.7,6,1.7,8.7c0,2.9-0.5,5.8-1.6,8.6
			c-1.1,2.8-2.6,4.9-4.6,6.5c-1.9,1.5-4.3,2.3-7,2.3c-0.8,0-1.6-0.1-2.4-0.2c-0.8-0.2-1.6-0.4-2.4-0.7c-0.5,0.6-1,1.1-1.2,1.7
			c-0.3,0.5-0.4,1-0.4,1.5c0,1,0.6,1.7,1.9,2l12.5,3c3.7,0.9,6.4,2.5,8.1,5c1.7,2.5,2.5,5.4,2.5,8.8c0,3-0.6,5.8-1.9,8.3
			c-1.2,2.6-3.3,4.7-6.1,6.3c-2.8,1.6-6.4,2.5-10.7,2.5c-3.8,0-6.9-0.6-9.4-1.8c-2.5-1.2-4.2-2.8-5.3-4.6c-1-1.9-1.6-3.6-1.6-5.3
			c0-1.9,0.4-3.6,1.2-5.1c0.8-1.5,2.4-3.3,4.8-5.2c-1.5-0.9-2.6-2-3.4-3.3c-1-1.7-1.5-3.5-1.5-5.4c0-2,0.5-4,1.4-5.9
			c0.9-1.9,2.3-3.9,4.2-5.8c-1-1.1-1.9-2.2-2.5-3.5c-0.6-1.3-1.1-2.8-1.5-4.6c-0.4-1.8-0.6-3.7-0.6-5.6c0-5,1.2-9.3,3.7-12.8
			s5.7-5.3,9.7-5.3c1.8,0,3.4,0.3,4.9,1C526,557.5,527.3,558.5,528.5,559.9z M515.5,610.3c-1.1,1.4-1.7,2.4-2,3.1
			c-0.3,0.7-0.4,1.5-0.4,2.4c0,1.6,0.8,2.9,2.4,3.8c1.6,0.9,3.7,1.4,6.2,1.4c1.8,0,3.5-0.3,4.9-0.8c1.4-0.5,2.3-1.2,2.8-2
			c0.3-0.5,0.5-1.2,0.5-2.1c0-1-0.3-1.8-0.9-2.4c-0.6-0.7-2.1-1.2-4.4-1.7L515.5,610.3z M519.9,565.4c-1.3,0-2.4,0.8-3.2,2.4
			c-0.8,1.6-1.3,3.7-1.3,6.4c0,2.5,0.4,4.4,1.2,5.9c0.8,1.5,1.8,2.2,3.1,2.2c1.2,0,2.3-0.8,3.1-2.3c0.8-1.5,1.3-3.5,1.3-5.9
			c0-2.7-0.4-4.8-1.2-6.3C522.2,566.2,521.2,565.4,519.9,565.4z"/>
		<path class="st1" d="M568.4,588.5l4.1,6.9c-2.4,4.5-4.8,7.8-7.3,9.8c-2.5,2-5.1,3-8,3c-4.6,0-8.5-2.6-11.6-7.7
			c-3.1-5.2-4.7-11.4-4.7-18.7c0-4.8,0.7-9.2,2.1-13.2c1.4-4,3.4-7.1,5.9-9.4s5.3-3.4,8.5-3.4c2,0,3.8,0.5,5.5,1.5s3.1,2.4,4.3,4.2
			c1.2,1.8,2.2,4,3,6.5s1.3,5.2,1.6,7.9c0.1,1.4,0.2,3.5,0.2,6.5h-20.3c0,4.2,0.8,7.7,2.3,10.3c1.5,2.6,3.2,3.9,5.4,3.9
			c1.3,0,2.8-0.7,4.4-2C565.3,593.3,566.8,591.2,568.4,588.5z M562.4,574c-0.1-2-0.4-3.6-0.9-4.7c-0.4-1.2-1-2.1-1.8-2.8
			c-0.7-0.7-1.5-1-2.3-1c-0.8,0-1.7,0.4-2.5,1.1c-0.8,0.7-1.4,1.7-1.9,2.9c-0.5,1.2-0.8,2.7-0.9,4.6H562.4z"/>
	</g>
</g>
<g>
	<g>
		<path d="M217.5,617.1h6.2c0.8,0,1.4,0.1,1.9,0.3c0.5,0.2,1,0.5,1.3,0.9c0.4,0.4,0.7,0.8,0.9,1.4c0.2,0.5,0.3,1.1,0.3,1.7
			c0,1.2-0.4,2.2-1.1,3c-0.8,0.8-1.8,1.2-3.2,1.2h-2v2.6c0,0.3,0,0.5,0.1,0.6c0.1,0.1,0.1,0.2,0.2,0.3c0.1,0.1,0.3,0.1,0.5,0.1h0.6
			v1.9h-5.7v-1.9h0.4c0.3,0,0.6,0,0.7-0.1c0.1-0.1,0.2-0.2,0.2-0.3c0.1-0.1,0.1-0.4,0.1-0.8v-7.7c0-0.4,0-0.7-0.1-0.8
			c0-0.1-0.1-0.2-0.2-0.3s-0.3-0.1-0.6-0.1h-0.6V617.1z M221.8,619.4v4h1c0.6,0,1.1-0.1,1.3-0.2s0.5-0.4,0.7-0.7s0.3-0.7,0.3-1.1
			c0-0.6-0.2-1.1-0.6-1.5c-0.3-0.3-0.8-0.4-1.4-0.4H221.8z"/>
		<path d="M232.4,620.8v1.5c0.4-0.6,0.8-0.9,1.2-1.1c0.3-0.2,0.6-0.3,0.9-0.3c0.3,0,0.5,0.1,0.7,0.2c0.2,0.2,0.4,0.4,0.5,0.6
			c0.1,0.3,0.2,0.6,0.2,0.9c0,0.4-0.1,0.8-0.3,1.1s-0.6,0.5-1,0.5c-0.1,0-0.2,0-0.3,0c-0.1,0-0.3-0.1-0.5-0.2
			c-0.1-0.1-0.3-0.1-0.4-0.1c-0.1,0-0.4,0.1-0.7,0.3v3.9c0,0.3,0,0.6,0.1,0.7s0.1,0.2,0.2,0.2c0.1,0,0.3,0.1,0.6,0.1h0.4v1.9h-5.2
			v-1.9h0.4c0.3,0,0.5,0,0.6-0.1s0.1-0.1,0.2-0.2c0-0.1,0.1-0.3,0.1-0.7v-4.6h-1.2v-1.9c0.9-0.1,1.9-0.3,2.8-0.8H232.4z"/>
		<path d="M241.3,620.8c1,0,1.8,0.2,2.5,0.7c0.7,0.4,1.3,1.1,1.6,1.8c0.4,0.8,0.6,1.7,0.6,2.7c0,1.6-0.4,2.8-1.3,3.8
			c-0.8,1-2,1.5-3.4,1.5c-1.4,0-2.6-0.5-3.4-1.5c-0.8-0.9-1.2-2.2-1.2-3.8c0-1,0.2-2,0.6-2.7c0.4-0.8,0.9-1.4,1.6-1.8
			S240.3,620.8,241.3,620.8z M241.3,623c-0.3,0-0.6,0.1-0.9,0.3c-0.3,0.2-0.5,0.6-0.6,1c-0.2,0.4-0.2,1-0.2,1.7
			c0,0.7,0.1,1.3,0.2,1.7c0.2,0.5,0.4,0.8,0.6,1s0.6,0.3,0.9,0.3c0.5,0,0.9-0.2,1.3-0.7s0.5-1.3,0.5-2.3c0-1-0.2-1.8-0.5-2.3
			C242.2,623.3,241.8,623,241.3,623z"/>
		<path d="M250.8,620.8v1.1c0.6-0.5,1.1-0.8,1.5-0.9c0.3-0.1,0.7-0.2,1.1-0.2c1,0,1.8,0.4,2.4,1.3c0.7,1,1.1,2.3,1.1,3.8
			c0,1.5-0.3,2.7-0.9,3.7c-0.7,1.1-1.6,1.7-2.8,1.7c-0.4,0-0.7-0.1-1-0.2s-0.6-0.3-0.9-0.6v2c0,0.4,0,0.6,0,0.7
			c0,0.1,0.1,0.2,0.2,0.2c0.1,0,0.3,0.1,0.6,0.1h0.4v1.9h-5.2v-1.9h0.3c0.4,0,0.6,0,0.7-0.1c0.1,0,0.1-0.1,0.2-0.2
			c0-0.1,0.1-0.4,0.1-0.7v-9h-1.2v-1.9c0.6-0.1,1.1-0.2,1.5-0.3c0.4-0.1,0.8-0.3,1.3-0.5H250.8z M251.1,624v3.3c0,0.5,0,0.9,0.1,1.1
			c0.1,0.2,0.2,0.4,0.4,0.5c0.2,0.1,0.4,0.2,0.7,0.2c0.5,0,0.8-0.3,1.1-0.8c0.3-0.5,0.4-1.3,0.4-2.3c0-0.9-0.1-1.7-0.4-2.1
			c-0.3-0.5-0.6-0.7-1-0.7C252.1,623.2,251.7,623.5,251.1,624z"/>
		<path d="M265.7,627.4l1.1,1.4c-0.7,0.9-1.3,1.6-2,2s-1.4,0.6-2.2,0.6c-1.3,0-2.3-0.5-3.2-1.5c-0.9-1-1.3-2.3-1.3-3.7
			c0-1,0.2-1.8,0.6-2.6s0.9-1.4,1.6-1.9c0.7-0.5,1.5-0.7,2.3-0.7c0.6,0,1.1,0.1,1.5,0.3c0.5,0.2,0.9,0.5,1.2,0.8
			c0.3,0.4,0.6,0.8,0.8,1.3s0.4,1,0.4,1.6c0,0.3,0.1,0.7,0.1,1.3h-5.6c0,0.8,0.2,1.5,0.6,2.1c0.4,0.5,0.9,0.8,1.5,0.8
			c0.4,0,0.8-0.1,1.2-0.4C264.9,628.3,265.3,627.9,265.7,627.4z M264.1,624.5c0-0.4-0.1-0.7-0.2-0.9s-0.3-0.4-0.5-0.6
			c-0.2-0.1-0.4-0.2-0.6-0.2c-0.2,0-0.5,0.1-0.7,0.2c-0.2,0.1-0.4,0.3-0.5,0.6c-0.1,0.2-0.2,0.5-0.3,0.9H264.1z"/>
		<path d="M271.8,620.8v1.5c0.4-0.6,0.8-0.9,1.2-1.1c0.3-0.2,0.6-0.3,0.9-0.3c0.3,0,0.5,0.1,0.7,0.2c0.2,0.2,0.4,0.4,0.5,0.6
			c0.1,0.3,0.2,0.6,0.2,0.9c0,0.4-0.1,0.8-0.3,1.1s-0.6,0.5-1,0.5c-0.1,0-0.2,0-0.3,0c-0.1,0-0.3-0.1-0.5-0.2
			c-0.1-0.1-0.3-0.1-0.4-0.1c-0.1,0-0.4,0.1-0.7,0.3v3.9c0,0.3,0,0.6,0.1,0.7s0.1,0.2,0.2,0.2c0.1,0,0.3,0.1,0.6,0.1h0.4v1.9h-5.2
			v-1.9h0.4c0.3,0,0.5,0,0.6-0.1s0.1-0.1,0.2-0.2c0-0.1,0.1-0.3,0.1-0.7v-4.6h-1.2v-1.9c0.9-0.1,1.9-0.3,2.8-0.8H271.8z"/>
		<path d="M279.7,617.6v3.4h2.7v2.1h-2.7v3.5c0,0.8,0,1.3,0.1,1.5c0.1,0.2,0.2,0.4,0.4,0.5c0.3,0.2,0.5,0.3,0.9,0.3
			c0.6,0,1.1-0.2,1.7-0.7v2.1c-0.5,0.3-0.9,0.5-1.3,0.6s-0.8,0.2-1.3,0.2c-0.5,0-1-0.1-1.4-0.2s-0.7-0.4-1-0.7
			c-0.3-0.3-0.5-0.6-0.6-0.9c-0.1-0.3-0.2-0.8-0.2-1.4v-4.8h-1.3v-1.9c0.4-0.2,0.8-0.4,1.1-0.7c0.3-0.3,0.6-0.7,0.8-1.2
			s0.3-1,0.4-1.7H279.7z"/>
		<path d="M283.4,621.1h5.2v1.9h-0.3c-0.3,0-0.5,0-0.6,0.1c-0.1,0-0.1,0.1-0.1,0.2c0,0.1,0.1,0.3,0.2,0.6l1.3,3.6l1.3-3.6
			c0.1-0.3,0.2-0.5,0.2-0.6c0-0.1,0-0.2-0.1-0.2c-0.1-0.1-0.3-0.1-0.6-0.1h-0.5v-1.9h4.5v1.9c-0.4,0-0.6,0-0.7,0.1
			c-0.1,0-0.2,0.1-0.2,0.2c-0.1,0.1-0.2,0.3-0.3,0.6l-3.8,9.3c-0.4,1-0.8,1.6-1.3,2c-0.5,0.4-1,0.6-1.7,0.6c-0.6,0-1.1-0.2-1.5-0.6
			c-0.4-0.4-0.6-0.9-0.6-1.4c0-0.4,0.1-0.7,0.4-1c0.2-0.3,0.5-0.4,0.8-0.4c0.2,0,0.4,0.1,0.7,0.2c0.1,0.1,0.3,0.2,0.4,0.4
			c0.1,0.1,0.2,0.2,0.2,0.3c0.1,0,0.1,0.1,0.2,0.1c0.1,0,0.2-0.1,0.3-0.2c0.2-0.2,0.4-0.6,0.6-1.1l0.3-0.8l-2.8-7.1
			c-0.1-0.4-0.2-0.6-0.3-0.7s-0.2-0.2-0.3-0.2c-0.1,0-0.3-0.1-0.7-0.1V621.1z"/>
		<path d="M300.3,617.1h5.3l2,8.5l2.1-8.5h5.4v1.9h-0.6c-0.3,0-0.5,0.1-0.6,0.2c-0.1,0.2-0.2,0.5-0.2,0.9v7.9c0,0.3,0,0.6,0.1,0.7
			c0.1,0.1,0.1,0.2,0.2,0.3c0.1,0.1,0.3,0.1,0.5,0.1h0.7v1.9h-5.6v-1.9h0.4c0.3,0,0.5,0,0.6-0.1c0.1-0.1,0.2-0.2,0.2-0.3
			c0.1-0.1,0.1-0.4,0.1-0.7v-8.6l-2.8,11.6h-1.6l-2.8-11.2v8.5c0,0.2,0,0.3,0.1,0.5c0.1,0.1,0.1,0.2,0.3,0.2
			c0.1,0.1,0.3,0.1,0.5,0.1h0.6v1.9h-4.8v-1.9h0.5c0.3,0,0.5,0,0.6-0.1s0.2-0.2,0.2-0.3c0.1-0.1,0.1-0.4,0.1-0.8v-7.8
			c0-0.4,0-0.6-0.1-0.7c-0.1-0.1-0.1-0.3-0.2-0.3c-0.1-0.1-0.3-0.1-0.5-0.1h-0.6V617.1z"/>
		<path d="M321.4,625v-0.7c0-0.4,0-0.7-0.1-0.9c-0.1-0.2-0.2-0.3-0.3-0.4c-0.2-0.1-0.4-0.2-0.6-0.2c-0.2,0-0.4,0-0.5,0.1
			s-0.3,0.2-0.4,0.3c-0.1,0.1-0.2,0.3-0.3,0.7c-0.2,0.4-0.3,0.7-0.5,0.9c-0.2,0.2-0.5,0.3-0.7,0.3c-0.4,0-0.6-0.1-0.9-0.4
			c-0.2-0.3-0.3-0.6-0.3-1c0-0.4,0.1-0.8,0.4-1.2c0.3-0.5,0.8-0.8,1.4-1.1c0.6-0.3,1.3-0.4,2.1-0.4c0.8,0,1.4,0.2,2,0.5
			s0.9,0.7,1.1,1.1c0.2,0.4,0.3,1.1,0.3,1.9v3.6c0,0.4,0,0.7,0.1,0.8c0,0.1,0.1,0.2,0.3,0.3c0.1,0.1,0.3,0.1,0.4,0.1
			c0.2,0,0.4-0.1,0.6-0.2v2c-0.5,0.2-0.9,0.3-1.4,0.3c-0.5,0-1-0.1-1.3-0.3c-0.4-0.2-0.7-0.5-0.9-0.9c-0.6,0.4-1.1,0.7-1.5,0.9
			c-0.5,0.2-0.9,0.3-1.3,0.3c-0.8,0-1.4-0.3-1.9-0.8c-0.5-0.5-0.7-1.2-0.7-2c0-0.4,0.1-0.9,0.3-1.2c0.2-0.4,0.4-0.7,0.8-1
			c0.3-0.3,0.9-0.5,1.6-0.7C319.6,625.3,320.4,625.1,321.4,625z M321.4,626.7c-0.7,0.1-1.2,0.3-1.5,0.4c-0.3,0.1-0.5,0.3-0.6,0.5
			c-0.1,0.2-0.2,0.4-0.2,0.6c0,0.3,0.1,0.5,0.3,0.7c0.2,0.2,0.4,0.3,0.7,0.3c0.2,0,0.4-0.1,0.6-0.2c0.2-0.1,0.5-0.3,0.8-0.5V626.7z"
			/>
		<path d="M330,620.8v1.3c0.6-0.5,1.2-0.9,1.6-1.1c0.4-0.2,0.9-0.3,1.4-0.3c0.5,0,1,0.1,1.4,0.4c0.4,0.3,0.7,0.6,0.9,1
			c0.2,0.4,0.3,1,0.3,1.7v4.2c0,0.4,0,0.6,0.1,0.7c0,0.1,0.1,0.2,0.2,0.2c0.1,0,0.3,0.1,0.6,0.1h0.4v1.9H332v-1.9c0.4,0,0.6,0,0.6,0
			c0.1,0,0.2-0.1,0.3-0.2c0-0.1,0.1-0.3,0.1-0.7v-3.7c0-0.5,0-0.8-0.1-0.9c-0.1-0.2-0.3-0.3-0.6-0.3c-0.2,0-0.5,0.1-0.8,0.2
			c-0.3,0.1-0.6,0.4-1.1,0.8v4c0,0.4,0,0.7,0.1,0.8c0.1,0.1,0.3,0.2,0.6,0.2h0.3v1.9h-4.9v-1.9h0.2c0.4,0,0.6,0,0.7-0.1
			c0.1,0,0.2-0.1,0.2-0.2c0-0.1,0.1-0.3,0.1-0.6v-4.7h-1.2v-1.9c1-0.1,1.9-0.4,2.8-0.9H330z"/>
		<path d="M343,625v-0.7c0-0.4,0-0.7-0.1-0.9c-0.1-0.2-0.2-0.3-0.3-0.4c-0.2-0.1-0.4-0.2-0.6-0.2c-0.2,0-0.4,0-0.5,0.1
			s-0.3,0.2-0.4,0.3c-0.1,0.1-0.2,0.3-0.3,0.7c-0.2,0.4-0.3,0.7-0.5,0.9c-0.2,0.2-0.5,0.3-0.7,0.3c-0.4,0-0.6-0.1-0.9-0.4
			c-0.2-0.3-0.3-0.6-0.3-1c0-0.4,0.1-0.8,0.4-1.2c0.3-0.5,0.8-0.8,1.4-1.1c0.6-0.3,1.3-0.4,2.1-0.4c0.8,0,1.4,0.2,2,0.5
			s0.9,0.7,1.1,1.1c0.2,0.4,0.3,1.1,0.3,1.9v3.6c0,0.4,0,0.7,0.1,0.8c0,0.1,0.1,0.2,0.3,0.3c0.1,0.1,0.3,0.1,0.4,0.1
			c0.2,0,0.4-0.1,0.6-0.2v2c-0.5,0.2-0.9,0.3-1.4,0.3c-0.5,0-1-0.1-1.3-0.3c-0.4-0.2-0.7-0.5-0.9-0.9c-0.6,0.4-1.1,0.7-1.5,0.9
			c-0.5,0.2-0.9,0.3-1.3,0.3c-0.8,0-1.4-0.3-1.9-0.8c-0.5-0.5-0.7-1.2-0.7-2c0-0.4,0.1-0.9,0.3-1.2c0.2-0.4,0.4-0.7,0.8-1
			c0.3-0.3,0.9-0.5,1.6-0.7C341.2,625.3,342,625.1,343,625z M343,626.7c-0.7,0.1-1.2,0.3-1.5,0.4c-0.3,0.1-0.5,0.3-0.6,0.5
			c-0.1,0.2-0.2,0.4-0.2,0.6c0,0.3,0.1,0.5,0.3,0.7c0.2,0.2,0.4,0.3,0.7,0.3c0.2,0,0.4-0.1,0.6-0.2c0.2-0.1,0.5-0.3,0.8-0.5V626.7z"
			/>
		<path d="M354.3,621.7c0.3-0.5,0.6-0.9,0.9-1.1s0.6-0.3,0.9-0.3c0.3,0,0.6,0.1,0.8,0.3c0.2,0.2,0.3,0.5,0.3,0.9
			c0,0.3-0.1,0.6-0.3,0.8c-0.2,0.2-0.4,0.3-0.7,0.3l-0.3,0l-0.3,0c-0.2,0-0.3,0.1-0.5,0.2c0.3,0.6,0.5,1.2,0.5,1.7
			c0,0.6-0.2,1.2-0.5,1.7s-0.7,1-1.3,1.3c-0.5,0.3-1.2,0.5-1.9,0.5c-0.2,0-0.4,0-0.7,0c-0.2,0-0.4-0.1-0.7-0.1
			c-0.2,0.1-0.3,0.2-0.3,0.3c-0.1,0.1-0.1,0.2-0.1,0.3c0,0.2,0.2,0.3,0.5,0.4l3.5,0.6c1,0.2,1.8,0.5,2.2,1c0.5,0.5,0.7,1.1,0.7,1.8
			c0,0.6-0.2,1.2-0.5,1.7s-0.9,0.9-1.7,1.3c-0.8,0.3-1.8,0.5-3,0.5c-1,0-1.9-0.1-2.6-0.4s-1.2-0.6-1.5-0.9c-0.3-0.4-0.4-0.7-0.4-1.1
			c0-0.4,0.1-0.7,0.3-1c0.2-0.3,0.7-0.7,1.3-1c-0.4-0.2-0.7-0.4-0.9-0.7c-0.3-0.3-0.4-0.7-0.4-1.1c0-0.4,0.1-0.8,0.4-1.2
			c0.3-0.4,0.6-0.8,1.2-1.2c-0.3-0.2-0.5-0.4-0.7-0.7c-0.2-0.3-0.3-0.6-0.4-0.9c-0.1-0.4-0.2-0.7-0.2-1.1c0-1,0.3-1.9,1-2.6
			s1.6-1.1,2.7-1.1c0.5,0,0.9,0.1,1.4,0.2S354,621.4,354.3,621.7z M350.8,631.7c-0.3,0.3-0.5,0.5-0.6,0.6c-0.1,0.1-0.1,0.3-0.1,0.5
			c0,0.3,0.2,0.6,0.7,0.8s1,0.3,1.7,0.3c0.5,0,1-0.1,1.3-0.2c0.4-0.1,0.6-0.2,0.8-0.4c0.1-0.1,0.1-0.2,0.1-0.4
			c0-0.2-0.1-0.4-0.3-0.5c-0.2-0.1-0.6-0.2-1.2-0.3L350.8,631.7z M352,622.8c-0.4,0-0.7,0.2-0.9,0.5c-0.2,0.3-0.3,0.7-0.3,1.3
			c0,0.5,0.1,0.9,0.3,1.2c0.2,0.3,0.5,0.4,0.9,0.4c0.3,0,0.6-0.2,0.9-0.5c0.2-0.3,0.3-0.7,0.3-1.2c0-0.5-0.1-1-0.3-1.3
			C352.6,622.9,352.3,622.8,352,622.8z"/>
		<path d="M365.4,627.4l1.1,1.4c-0.7,0.9-1.3,1.6-2,2s-1.4,0.6-2.2,0.6c-1.3,0-2.3-0.5-3.2-1.5c-0.9-1-1.3-2.3-1.3-3.7
			c0-1,0.2-1.8,0.6-2.6s0.9-1.4,1.6-1.9c0.7-0.5,1.5-0.7,2.3-0.7c0.6,0,1.1,0.1,1.5,0.3c0.5,0.2,0.9,0.5,1.2,0.8
			c0.3,0.4,0.6,0.8,0.8,1.3s0.4,1,0.4,1.6c0,0.3,0.1,0.7,0.1,1.3h-5.6c0,0.8,0.2,1.5,0.6,2.1c0.4,0.5,0.9,0.8,1.5,0.8
			c0.4,0,0.8-0.1,1.2-0.4C364.5,628.3,365,627.9,365.4,627.4z M363.7,624.5c0-0.4-0.1-0.7-0.2-0.9s-0.3-0.4-0.5-0.6
			c-0.2-0.1-0.4-0.2-0.6-0.2c-0.2,0-0.5,0.1-0.7,0.2c-0.2,0.1-0.4,0.3-0.5,0.6c-0.1,0.2-0.2,0.5-0.3,0.9H363.7z"/>
		<path d="M371.6,620.8v1.3c0.5-0.4,1-0.8,1.5-1c0.5-0.2,1-0.3,1.5-0.3c0.3,0,0.6,0.1,0.9,0.2c0.3,0.1,0.6,0.3,0.8,0.5
			c0.2,0.2,0.4,0.4,0.6,0.8c0.5-0.5,1.1-0.9,1.6-1.1c0.5-0.2,1-0.3,1.5-0.3c0.4,0,0.8,0.1,1.2,0.3c0.4,0.2,0.7,0.5,0.9,0.8
			c0.2,0.3,0.4,0.7,0.4,1.1c0,0.2,0.1,0.6,0.1,1.1v4.2c0,0.3,0,0.6,0.1,0.7c0,0.1,0.1,0.2,0.2,0.2c0.1,0,0.3,0.1,0.6,0.1h0.4v1.9
			h-4.9v-1.9c0.4,0,0.6,0,0.7-0.1s0.2-0.1,0.2-0.2c0-0.1,0.1-0.3,0.1-0.6v-3.6c0-0.4,0-0.7-0.1-0.8c0-0.1-0.1-0.3-0.3-0.4
			c-0.1-0.1-0.3-0.1-0.5-0.1c-0.2,0-0.5,0.1-0.7,0.2s-0.6,0.4-1.1,0.8v3.9c0,0.4,0,0.6,0.1,0.7c0,0.1,0.1,0.2,0.2,0.2
			c0.1,0,0.3,0.1,0.7,0.1v1.9h-4.6v-1.9c0.4,0,0.6,0,0.7-0.1s0.1-0.1,0.2-0.2c0-0.1,0.1-0.4,0.1-0.7v-3.4c0-0.5,0-0.9-0.1-1.1
			c-0.1-0.3-0.3-0.4-0.7-0.4c-0.2,0-0.3,0-0.5,0.1c-0.2,0-0.3,0.1-0.5,0.2c-0.1,0.1-0.3,0.2-0.7,0.5l-0.2,0.2v3.9
			c0,0.4,0,0.6,0.1,0.7c0,0.1,0.1,0.2,0.2,0.2c0.1,0.1,0.3,0.1,0.5,0.1h0.2v1.9h-4.9v-1.9h0.3c0.3,0,0.6,0,0.6-0.1
			c0.1,0,0.2-0.1,0.2-0.2c0-0.1,0.1-0.4,0.1-0.7v-4.5h-1.2v-1.9c1-0.1,2-0.4,2.8-0.9H371.6z"/>
		<path d="M392.4,627.4l1.1,1.4c-0.7,0.9-1.3,1.6-2,2s-1.4,0.6-2.2,0.6c-1.3,0-2.3-0.5-3.2-1.5c-0.9-1-1.3-2.3-1.3-3.7
			c0-1,0.2-1.8,0.6-2.6s0.9-1.4,1.6-1.9c0.7-0.5,1.5-0.7,2.3-0.7c0.6,0,1.1,0.1,1.5,0.3c0.5,0.2,0.9,0.5,1.2,0.8
			c0.3,0.4,0.6,0.8,0.8,1.3s0.4,1,0.4,1.6c0,0.3,0.1,0.7,0.1,1.3h-5.6c0,0.8,0.2,1.5,0.6,2.1c0.4,0.5,0.9,0.8,1.5,0.8
			c0.4,0,0.8-0.1,1.2-0.4C391.6,628.3,392,627.9,392.4,627.4z M390.8,624.5c0-0.4-0.1-0.7-0.2-0.9s-0.3-0.4-0.5-0.6
			c-0.2-0.1-0.4-0.2-0.6-0.2c-0.2,0-0.5,0.1-0.7,0.2c-0.2,0.1-0.4,0.3-0.5,0.6c-0.1,0.2-0.2,0.5-0.3,0.9H390.8z"/>
		<path d="M398.5,620.8v1.3c0.6-0.5,1.2-0.9,1.6-1.1c0.4-0.2,0.9-0.3,1.4-0.3c0.5,0,1,0.1,1.4,0.4c0.4,0.3,0.7,0.6,0.9,1
			c0.2,0.4,0.3,1,0.3,1.7v4.2c0,0.4,0,0.6,0.1,0.7c0,0.1,0.1,0.2,0.2,0.2c0.1,0,0.3,0.1,0.6,0.1h0.4v1.9h-4.9v-1.9
			c0.4,0,0.6,0,0.6,0c0.1,0,0.2-0.1,0.3-0.2c0-0.1,0.1-0.3,0.1-0.7v-3.7c0-0.5,0-0.8-0.1-0.9c-0.1-0.2-0.3-0.3-0.6-0.3
			c-0.2,0-0.5,0.1-0.8,0.2c-0.3,0.1-0.6,0.4-1.1,0.8v4c0,0.4,0,0.7,0.1,0.8c0.1,0.1,0.3,0.2,0.6,0.2h0.3v1.9h-4.9v-1.9h0.2
			c0.4,0,0.6,0,0.7-0.1c0.1,0,0.2-0.1,0.2-0.2c0-0.1,0.1-0.3,0.1-0.6v-4.7h-1.2v-1.9c1-0.1,1.9-0.4,2.8-0.9H398.5z"/>
		<path d="M410.2,617.6v3.4h2.7v2.1h-2.7v3.5c0,0.8,0,1.3,0.1,1.5c0.1,0.2,0.2,0.4,0.4,0.5c0.3,0.2,0.5,0.3,0.9,0.3
			c0.6,0,1.1-0.2,1.7-0.7v2.1c-0.5,0.3-0.9,0.5-1.3,0.6s-0.8,0.2-1.3,0.2c-0.5,0-1-0.1-1.4-0.2s-0.7-0.4-1-0.7
			c-0.3-0.3-0.5-0.6-0.6-0.9c-0.1-0.3-0.2-0.8-0.2-1.4v-4.8h-1.3v-1.9c0.4-0.2,0.8-0.4,1.1-0.7c0.3-0.3,0.6-0.7,0.8-1.2
			s0.3-1,0.4-1.7H410.2z"/>
		<path d="M429,617.1l1,4.7l-1.6,0.5c-0.5-1.1-1.1-1.9-1.8-2.5s-1.4-0.8-2.1-0.8c-0.5,0-0.9,0.1-1.1,0.4s-0.4,0.5-0.4,0.8
			c0,0.3,0.1,0.6,0.4,0.9c0.2,0.3,0.7,0.5,1.4,0.8l2.2,0.8c1.2,0.4,2.1,1,2.7,1.7c0.5,0.7,0.8,1.5,0.8,2.5c0,1.2-0.4,2.2-1.2,3.1
			c-0.9,0.9-2,1.4-3.3,1.4c-0.6,0-1.2-0.1-1.7-0.3c-0.5-0.2-1.1-0.5-1.6-1l-0.4,1h-1.2l-0.8-5.4l1.6-0.5c0.4,1.1,0.9,2,1.7,2.8
			c0.8,0.7,1.6,1.1,2.6,1.1c0.4,0,0.8-0.1,1-0.2s0.5-0.3,0.6-0.5c0.1-0.2,0.2-0.5,0.2-0.7c0-0.4-0.2-0.7-0.5-1
			c-0.3-0.3-0.9-0.6-1.7-0.9l-1.9-0.7c-0.3-0.1-0.7-0.3-1.2-0.6s-0.9-0.6-1.2-0.9c-0.3-0.3-0.5-0.7-0.7-1.2c-0.2-0.5-0.3-1-0.3-1.5
			c0-0.7,0.2-1.4,0.5-2.1s0.9-1.1,1.5-1.5s1.5-0.6,2.3-0.6c1,0,1.9,0.3,2.7,0.9l0.3-0.7H429z"/>
		<path d="M436.1,620.8c1,0,1.8,0.2,2.5,0.7c0.7,0.4,1.3,1.1,1.6,1.8c0.4,0.8,0.6,1.7,0.6,2.7c0,1.6-0.4,2.8-1.3,3.8
			c-0.8,1-2,1.5-3.4,1.5c-1.4,0-2.6-0.5-3.4-1.5c-0.8-0.9-1.2-2.2-1.2-3.8c0-1,0.2-2,0.6-2.7c0.4-0.8,0.9-1.4,1.6-1.8
			S435.2,620.8,436.1,620.8z M436.1,623c-0.3,0-0.6,0.1-0.9,0.3c-0.3,0.2-0.5,0.6-0.6,1c-0.2,0.4-0.2,1-0.2,1.7
			c0,0.7,0.1,1.3,0.2,1.7c0.2,0.5,0.4,0.8,0.6,1s0.6,0.3,0.9,0.3c0.5,0,0.9-0.2,1.3-0.7s0.5-1.3,0.5-2.3c0-1-0.2-1.8-0.5-2.3
			C437.1,623.3,436.6,623,436.1,623z"/>
		<path d="M447.4,621.1v2.1H446v4.9c0,0.4,0,0.6,0,0.7c0,0.1,0.1,0.2,0.2,0.3c0.1,0.1,0.3,0.1,0.6,0.1h0.5v1.9h-5.2v-1.9h0.4
			c0.3,0,0.5,0,0.6-0.1c0.1,0,0.1-0.1,0.2-0.2c0-0.1,0.1-0.4,0.1-0.8v-4.9h-1.2v-2.1h1.2v-1c0-0.7,0.1-1.3,0.3-1.8
			c0.3-0.6,0.7-1,1.2-1.4s1.2-0.5,2-0.5c0.8,0,1.5,0.2,2,0.6c0.5,0.4,0.7,0.9,0.7,1.4c0,0.4-0.1,0.7-0.3,1c-0.2,0.3-0.5,0.4-0.8,0.4
			c-0.1,0-0.3,0-0.4-0.1s-0.3-0.1-0.4-0.2c-0.1-0.1-0.2-0.2-0.4-0.5c-0.2-0.2-0.3-0.4-0.4-0.4c-0.1-0.1-0.2-0.1-0.2-0.1
			c-0.2,0-0.3,0.1-0.5,0.3s-0.2,0.6-0.2,1.3v1H447.4z"/>
		<path d="M452.3,617.6v3.4h2.7v2.1h-2.7v3.5c0,0.8,0,1.3,0.1,1.5c0.1,0.2,0.2,0.4,0.4,0.5c0.3,0.2,0.5,0.3,0.9,0.3
			c0.6,0,1.1-0.2,1.7-0.7v2.1c-0.5,0.3-0.9,0.5-1.3,0.6s-0.8,0.2-1.3,0.2c-0.5,0-1-0.1-1.4-0.2s-0.7-0.4-1-0.7
			c-0.3-0.3-0.5-0.6-0.6-0.9c-0.1-0.3-0.2-0.8-0.2-1.4v-4.8h-1.3v-1.9c0.4-0.2,0.8-0.4,1.1-0.7c0.3-0.3,0.6-0.7,0.8-1.2
			s0.3-1,0.4-1.7H452.3z"/>
		<path d="M455.9,621.1h4.4v1.9h-0.2c-0.2,0-0.3,0-0.4,0.1c-0.1,0.1-0.1,0.2-0.1,0.3c0,0.1,0,0.2,0.1,0.4l1.2,4.3l1-3.4l-0.3-0.9
			c-0.1-0.3-0.2-0.5-0.3-0.6c-0.1-0.1-0.3-0.2-0.5-0.2v-1.9h4.2v1.9h-0.3c-0.2,0-0.3,0-0.4,0.1c-0.1,0.1-0.1,0.2-0.1,0.3
			c0,0.1,0,0.3,0.1,0.5l1,3.6l1-3.6c0.1-0.2,0.1-0.4,0.1-0.5c0-0.1,0-0.2-0.1-0.3c-0.1-0.1-0.2-0.1-0.5-0.1h-0.2v-1.9h3.8v1.9
			c-0.3,0-0.4,0-0.5,0.1c-0.1,0-0.2,0.1-0.2,0.2c-0.1,0.1-0.2,0.3-0.3,0.7l-2.2,7.2h-2.2l-1.2-4l-1.3,4h-2.2l-2.2-7.2
			c-0.1-0.3-0.2-0.5-0.3-0.6c-0.1-0.1-0.1-0.2-0.2-0.2s-0.2-0.1-0.5-0.1V621.1z"/>
		<path d="M475.2,625v-0.7c0-0.4,0-0.7-0.1-0.9c-0.1-0.2-0.2-0.3-0.3-0.4c-0.2-0.1-0.4-0.2-0.6-0.2c-0.2,0-0.4,0-0.5,0.1
			s-0.3,0.2-0.4,0.3c-0.1,0.1-0.2,0.3-0.3,0.7c-0.2,0.4-0.3,0.7-0.5,0.9c-0.2,0.2-0.5,0.3-0.7,0.3c-0.4,0-0.6-0.1-0.9-0.4
			c-0.2-0.3-0.3-0.6-0.3-1c0-0.4,0.1-0.8,0.4-1.2c0.3-0.5,0.8-0.8,1.4-1.1c0.6-0.3,1.3-0.4,2.1-0.4c0.8,0,1.4,0.2,2,0.5
			s0.9,0.7,1.1,1.1c0.2,0.4,0.3,1.1,0.3,1.9v3.6c0,0.4,0,0.7,0.1,0.8c0,0.1,0.1,0.2,0.3,0.3c0.1,0.1,0.3,0.1,0.4,0.1
			c0.2,0,0.4-0.1,0.6-0.2v2c-0.5,0.2-0.9,0.3-1.4,0.3c-0.5,0-1-0.1-1.3-0.3c-0.4-0.2-0.7-0.5-0.9-0.9c-0.6,0.4-1.1,0.7-1.5,0.9
			c-0.5,0.2-0.9,0.3-1.3,0.3c-0.8,0-1.4-0.3-1.9-0.8c-0.5-0.5-0.7-1.2-0.7-2c0-0.4,0.1-0.9,0.3-1.2c0.2-0.4,0.4-0.7,0.8-1
			c0.3-0.3,0.9-0.5,1.6-0.7C473.3,625.3,474.2,625.1,475.2,625z M475.2,626.7c-0.7,0.1-1.2,0.3-1.5,0.4c-0.3,0.1-0.5,0.3-0.6,0.5
			c-0.1,0.2-0.2,0.4-0.2,0.6c0,0.3,0.1,0.5,0.3,0.7c0.2,0.2,0.4,0.3,0.7,0.3c0.2,0,0.4-0.1,0.6-0.2c0.2-0.1,0.5-0.3,0.8-0.5V626.7z"
			/>
		<path d="M483.8,620.8v1.5c0.4-0.6,0.8-0.9,1.2-1.1c0.3-0.2,0.6-0.3,0.9-0.3c0.3,0,0.5,0.1,0.7,0.2s0.4,0.4,0.5,0.6
			c0.1,0.3,0.2,0.6,0.2,0.9c0,0.4-0.1,0.8-0.3,1.1c-0.2,0.3-0.6,0.5-1,0.5c-0.1,0-0.2,0-0.3,0c-0.1,0-0.3-0.1-0.5-0.2
			c-0.1-0.1-0.3-0.1-0.4-0.1c-0.1,0-0.4,0.1-0.7,0.3v3.9c0,0.3,0,0.6,0.1,0.7s0.1,0.2,0.2,0.2c0.1,0,0.3,0.1,0.6,0.1h0.4v1.9h-5.2
			v-1.9h0.4c0.3,0,0.5,0,0.6-0.1s0.1-0.1,0.2-0.2c0-0.1,0.1-0.3,0.1-0.7v-4.6h-1.2v-1.9c0.9-0.1,1.9-0.3,2.8-0.8H483.8z"/>
		<path d="M495.5,627.4l1.1,1.4c-0.7,0.9-1.3,1.6-2,2c-0.7,0.4-1.4,0.6-2.2,0.6c-1.3,0-2.3-0.5-3.2-1.5c-0.9-1-1.3-2.3-1.3-3.7
			c0-1,0.2-1.8,0.6-2.6c0.4-0.8,0.9-1.4,1.6-1.9c0.7-0.5,1.5-0.7,2.3-0.7c0.6,0,1.1,0.1,1.5,0.3c0.5,0.2,0.9,0.5,1.2,0.8
			c0.3,0.4,0.6,0.8,0.8,1.3s0.4,1,0.4,1.6c0,0.3,0,0.7,0,1.3h-5.6c0,0.8,0.2,1.5,0.6,2.1c0.4,0.5,0.9,0.8,1.5,0.8
			c0.4,0,0.8-0.1,1.2-0.4S495.1,627.9,495.5,627.4z M493.8,624.5c0-0.4-0.1-0.7-0.2-0.9s-0.3-0.4-0.5-0.6c-0.2-0.1-0.4-0.2-0.6-0.2
			c-0.2,0-0.5,0.1-0.7,0.2c-0.2,0.1-0.4,0.3-0.5,0.6c-0.1,0.2-0.2,0.5-0.3,0.9H493.8z"/>
	</g>
</g>
<path id="path4095" inkscape:connector-curvature="0" d="M292.9,478.5c-2.7,0-5,1.4-6.7,3.5s-2.6,4.9-2.6,8.1c0,3.1,1,6,2.6,8.1
	s4,3.5,6.7,3.5c2.7,0,5-1.4,6.7-3.5s2.6-4.9,2.6-8.1s-1-6-2.6-8.1S295.5,478.5,292.9,478.5L292.9,478.5z M293.5,479.6
	c1.9,0.2,3.6,1.2,4.9,3c1.4,1.8,2.3,4.3,2.4,7l-7.3,0L293.5,479.6L293.5,479.6z M292.2,479.6l0,10l-7.3,0c0.1-2.8,1-5.2,2.4-7
	C288.6,480.8,290.3,479.8,292.2,479.6L292.2,479.6z M300.8,490.6c-0.1,2.8-1,5.2-2.4,7c-1.3,1.7-3,2.7-4.9,2.9l0-10L300.8,490.6z
	 M292.2,490.6l0,10c-1.9-0.2-3.6-1.2-4.9-3c-1.4-1.8-2.3-4.3-2.4-7L292.2,490.6L292.2,490.6z"/>
<path id="path4095_1_" inkscape:connector-curvature="0" d="M383.7,500.8c-2.4,0-4.5,1.2-6,3.1s-2.4,4.4-2.4,7.3s0.9,5.4,2.4,7.3
	s3.6,3.1,6,3.1s4.5-1.2,6-3.1s2.4-4.4,2.4-7.3s-0.9-5.4-2.4-7.3C388.2,502,386.1,500.8,383.7,500.8L383.7,500.8z M384.2,501.7
	c1.7,0.2,3.2,1.1,4.4,2.7c1.3,1.6,2.1,3.8,2.2,6.3l-6.6,0L384.2,501.7L384.2,501.7z M383,501.7l0,9l-6.6,0c0.1-2.5,0.9-4.7,2.2-6.3
	C379.8,502.8,381.4,501.9,383,501.7L383,501.7z M390.8,511.6c-0.1,2.5-0.9,4.7-2.2,6.3c-1.2,1.5-2.7,2.5-4.4,2.7l0-9L390.8,511.6z
	 M383.1,511.6l0,9c-1.7-0.2-3.2-1.1-4.4-2.7c-1.3-1.6-2.1-3.8-2.2-6.3L383.1,511.6L383.1,511.6z"/>
<path id="path4095_2_" inkscape:connector-curvature="0" d="M474.8,479.6c-2.7,0-5,1.4-6.7,3.5c-1.6,2.1-2.6,4.9-2.6,8.1
	s1,6,2.6,8.1c1.6,2.1,4,3.5,6.7,3.5c2.7,0,5-1.4,6.7-3.5c1.6-2.1,2.6-4.9,2.6-8.1s-1-6-2.6-8.1C479.9,481,477.5,479.6,474.8,479.6
	L474.8,479.6z M475.5,480.6c1.9,0.2,3.6,1.2,4.9,3c1.4,1.8,2.3,4.3,2.4,7l-7.3,0L475.5,480.6L475.5,480.6z M474.2,480.6l0,10l-7.3,0
	c0.1-2.8,1-5.2,2.4-7C470.6,481.9,472.3,480.8,474.2,480.6L474.2,480.6z M482.8,491.6c-0.1,2.8-1,5.2-2.4,7c-1.3,1.7-3,2.7-4.9,2.9
	l0-10L482.8,491.6z M474.2,491.6l0,10c-1.9-0.2-3.6-1.2-4.9-3c-1.4-1.8-2.3-4.3-2.4-7L474.2,491.6L474.2,491.6z"/>
</svg>
